<svg width="805" height="93" viewBox="0 0 805 93" fill="none" xmlns="http://www.w3.org/2000/svg">
<path d="M6.19048 67.9048H12.2857V74H6.19048V67.9048ZM6.19048 61.8095H12.2857V67.9048H6.19048V61.8095ZM6.19048 55.7143H12.2857V61.8095H6.19048V55.7143ZM6.19048 49.619H12.2857V55.7143H6.19048V49.619ZM6.19048 43.5238H12.2857V49.619H6.19048V43.5238ZM6.19048 37.4286H12.2857V43.5238H6.19048V37.4286ZM6.19048 31.3333H12.2857V37.4286H6.19048V31.3333ZM6.19048 25.2381H12.2857V31.3333H6.19048V25.2381ZM12.2857 25.2381H18.381V31.3333H12.2857V25.2381ZM12.2857 31.3333H18.381V37.4286H12.2857V31.3333ZM12.2857 37.4286H18.381V43.5238H12.2857V37.4286ZM12.2857 43.5238H18.381V49.619H12.2857V43.5238ZM12.2857 49.619H18.381V55.7143H12.2857V49.619ZM12.2857 55.7143H18.381V61.8095H12.2857V55.7143ZM12.2857 61.8095H18.381V67.9048H12.2857V61.8095ZM0.0952382 31.3333H6.19048V37.4286H0.0952382V31.3333ZM30.5655 25.2381H36.6607V31.3333H30.5655V25.2381ZM36.6607 25.2381H42.756V31.3333H36.6607V25.2381ZM24.4702 31.3333H30.5655V37.4286H24.4702V31.3333ZM30.5655 31.3333H36.6607V37.4286H30.5655V31.3333ZM36.6607 31.3333H42.756V37.4286H36.6607V31.3333ZM42.756 31.3333H48.8512V37.4286H42.756V31.3333ZM48.8512 31.3333H54.9464V37.4286H48.8512V31.3333ZM42.756 37.4286H48.8512V43.5238H42.756V37.4286ZM36.6607 37.4286H42.756V43.5238H36.6607V37.4286ZM36.6607 43.5238H42.756V49.619H36.6607V43.5238ZM36.6607 49.619H42.756V55.7143H36.6607V49.619ZM30.5655 49.619H36.6607V55.7143H30.5655V49.619ZM42.756 49.619H48.8512V55.7143H42.756V49.619ZM36.6607 55.7143H42.756V61.8095H36.6607V55.7143ZM42.756 55.7143H48.8512V61.8095H42.756V55.7143ZM48.8512 55.7143H54.9464V61.8095H48.8512V55.7143ZM48.8512 61.8095H54.9464V67.9048H48.8512V61.8095ZM48.8512 67.9048H54.9464V74H48.8512V67.9048ZM42.756 67.9048H48.8512V74H42.756V67.9048ZM42.756 61.8095H48.8512V67.9048H42.756V61.8095ZM42.756 74H48.8512V80.0952H42.756V74ZM36.6607 80.0952H42.756V86.1905H36.6607V80.0952ZM30.5655 80.0952H36.6607V86.1905H30.5655V80.0952ZM30.5655 74H36.6607V80.0952H30.5655V74ZM30.5655 86.1905H36.6607V92.2857H30.5655V86.1905ZM24.4702 80.0952H30.5655V86.1905H24.4702V80.0952ZM91.5952 49.619H97.6905V55.7143H91.5952V49.619ZM91.5952 43.5238H97.6905V49.619H91.5952V43.5238ZM91.5952 37.4286H97.6905V43.5238H91.5952V37.4286ZM91.5952 31.3333H97.6905V37.4286H91.5952V31.3333ZM97.6905 31.3333H103.786V37.4286H97.6905V31.3333ZM97.6905 37.4286H103.786V43.5238H97.6905V37.4286ZM97.6905 43.5238H103.786V49.619H97.6905V43.5238ZM97.6905 49.619H103.786V55.7143H97.6905V49.619ZM97.6905 55.7143H103.786V61.8095H97.6905V55.7143ZM103.786 55.7143H109.881V61.8095H103.786V55.7143ZM103.786 61.8095H109.881V67.9048H103.786V61.8095ZM97.6905 61.8095H103.786V67.9048H97.6905V61.8095ZM109.881 61.8095H115.976V67.9048H109.881V61.8095ZM109.881 67.9048H115.976V74H109.881V67.9048ZM115.976 67.9048H122.071V74H115.976V67.9048ZM122.071 67.9048H128.167V74H122.071V67.9048ZM128.167 67.9048H134.262V74H128.167V67.9048ZM134.262 67.9048H140.357V74H134.262V67.9048ZM140.357 61.8095H146.452V67.9048H140.357V61.8095ZM146.452 61.8095H152.548V67.9048H146.452V61.8095ZM140.357 67.9048H146.452V74H140.357V67.9048ZM152.548 55.7143H158.643V61.8095H152.548V55.7143ZM91.5952 25.2381H97.6905V31.3333H91.5952V25.2381ZM97.6905 25.2381H103.786V31.3333H97.6905V25.2381ZM97.6905 19.1429H103.786V25.2381H97.6905V19.1429ZM97.6905 13.0476H103.786V19.1429H97.6905V13.0476ZM103.786 6.95238H109.881V13.0476H103.786V6.95238ZM109.881 0.85714H115.976V6.95238H109.881V0.85714ZM109.881 25.2381H115.976V31.3333H109.881V25.2381ZM115.976 25.2381H122.071V31.3333H115.976V25.2381ZM109.881 37.4286H115.976V43.5238H109.881V37.4286ZM115.976 37.4286H122.071V43.5238H115.976V37.4286ZM122.071 37.4286H128.167V43.5238H122.071V37.4286ZM122.071 25.2381H128.167V31.3333H122.071V25.2381ZM122.071 31.3333H128.167V37.4286H122.071V31.3333ZM122.071 43.5238H128.167V49.619H122.071V43.5238ZM128.167 37.4286H134.262V43.5238H128.167V37.4286ZM128.167 31.3333H134.262V37.4286H128.167V31.3333ZM128.167 25.2381H134.262V31.3333H128.167V25.2381ZM128.167 43.5238H134.262V49.619H128.167V43.5238ZM115.976 55.7143H122.071V61.8095H115.976V55.7143ZM122.071 55.7143H128.167V61.8095H122.071V55.7143ZM122.071 49.619H128.167V55.7143H122.071V49.619ZM128.167 49.619H134.262V55.7143H128.167V49.619ZM140.357 49.619H146.452V55.7143H140.357V49.619ZM140.357 43.5238H146.452V49.619H140.357V43.5238ZM140.357 37.4286H146.452V43.5238H140.357V37.4286ZM140.357 31.3333H146.452V37.4286H140.357V31.3333ZM140.357 25.2381H146.452V31.3333H140.357V25.2381ZM140.357 19.1429H146.452V25.2381H140.357V19.1429ZM128.167 19.1429H134.262V25.2381H128.167V19.1429ZM122.071 19.1429H128.167V25.2381H122.071V19.1429ZM122.071 13.0476H128.167V19.1429H122.071V13.0476ZM128.167 13.0476H134.262V19.1429H128.167V13.0476ZM128.167 6.95238H134.262V13.0476H128.167V6.95238ZM134.262 0.85714H140.357V6.95238H134.262V0.85714ZM140.357 0.85714H146.452V6.95238H140.357V0.85714ZM140.357 6.95238H146.452V13.0476H140.357V6.95238ZM146.452 6.95238H152.548V13.0476H146.452V6.95238ZM152.548 0.85714H158.643V6.95238H152.548V0.85714ZM170.815 61.8095H176.911V67.9048H170.815V61.8095ZM176.911 61.8095H183.006V67.9048H176.911V61.8095ZM183.006 61.8095H189.101V67.9048H183.006V61.8095ZM189.101 61.8095H195.196V67.9048H189.101V61.8095ZM176.911 67.9048H183.006V74H176.911V67.9048ZM183.006 67.9048H189.101V74H183.006V67.9048ZM164.72 61.8095H170.815V67.9048H164.72V61.8095ZM170.815 55.7143H176.911V61.8095H170.815V55.7143ZM170.815 49.619H176.911V55.7143H170.815V49.619ZM170.815 43.5238H176.911V49.619H170.815V43.5238ZM176.911 55.7143H183.006V61.8095H176.911V55.7143ZM176.911 49.619H183.006V55.7143H176.911V49.619ZM176.911 43.5238H183.006V49.619H176.911V43.5238ZM176.911 37.4286H183.006V43.5238H176.911V37.4286ZM195.196 31.3333H201.292V37.4286H195.196V31.3333ZM195.196 37.4286H201.292V43.5238H195.196V37.4286ZM201.292 37.4286H207.387V43.5238H201.292V37.4286ZM195.196 43.5238H201.292V49.619H195.196V43.5238ZM201.292 43.5238H207.387V49.619H201.292V43.5238ZM201.292 49.619H207.387V55.7143H201.292V49.619ZM195.196 49.619H201.292V55.7143H195.196V49.619ZM195.196 55.7143H201.292V61.8095H195.196V55.7143ZM201.292 55.7143H207.387V61.8095H201.292V55.7143ZM195.196 61.8095H201.292V67.9048H195.196V61.8095ZM195.196 67.9048H201.292V74H195.196V67.9048ZM201.292 67.9048H207.387V74H201.292V67.9048ZM201.292 61.8095H207.387V67.9048H201.292V61.8095ZM207.387 61.8095H213.482V67.9048H207.387V61.8095ZM183.006 25.2381H189.101V31.3333H183.006V25.2381ZM189.101 25.2381H195.196V31.3333H189.101V25.2381ZM195.196 25.2381H201.292V31.3333H195.196V25.2381ZM207.387 31.3333H213.482V37.4286H207.387V31.3333ZM201.292 31.3333H207.387V37.4286H201.292V31.3333ZM176.911 31.3333H183.006V37.4286H176.911V31.3333ZM170.815 37.4286H176.911V43.5238H170.815V37.4286ZM225.69 61.8095H231.786V67.9048H225.69V61.8095ZM231.786 61.8095H237.881V67.9048H231.786V61.8095ZM237.881 61.8095H243.976V67.9048H237.881V61.8095ZM243.976 61.8095H250.071V67.9048H243.976V61.8095ZM231.786 67.9048H237.881V74H231.786V67.9048ZM237.881 67.9048H243.976V74H237.881V67.9048ZM231.786 55.7143H237.881V61.8095H231.786V55.7143ZM237.881 55.7143H243.976V61.8095H237.881V55.7143ZM237.881 49.619H243.976V55.7143H237.881V49.619ZM237.881 43.5238H243.976V49.619H237.881V43.5238ZM237.881 37.4286H243.976V43.5238H237.881V37.4286ZM231.786 37.4286H237.881V43.5238H231.786V37.4286ZM231.786 43.5238H237.881V49.619H231.786V43.5238ZM231.786 49.619H237.881V55.7143H231.786V49.619ZM237.881 31.3333H243.976V37.4286H237.881V31.3333ZM231.786 31.3333H237.881V37.4286H231.786V31.3333ZM225.69 31.3333H231.786V37.4286H225.69V31.3333ZM219.595 31.3333H225.69V37.4286H219.595V31.3333ZM225.69 25.2381H231.786V31.3333H225.69V25.2381ZM231.786 25.2381H237.881V31.3333H231.786V25.2381ZM243.976 25.2381H250.071V31.3333H243.976V25.2381ZM250.071 25.2381H256.167V31.3333H250.071V25.2381ZM256.167 25.2381H262.262V31.3333H256.167V25.2381ZM250.071 31.3333H256.167V37.4286H250.071V31.3333ZM256.167 31.3333H262.262V37.4286H256.167V31.3333ZM268.345 61.8095H274.44V67.9048H268.345V61.8095ZM274.44 61.8095H280.536V67.9048H274.44V61.8095ZM280.536 61.8095H286.631V67.9048H280.536V61.8095ZM286.631 61.8095H292.726V67.9048H286.631V61.8095ZM292.726 61.8095H298.821V67.9048H292.726V61.8095ZM280.536 67.9048H286.631V74H280.536V67.9048ZM286.631 67.9048H292.726V74H286.631V67.9048ZM298.821 61.8095H304.917V67.9048H298.821V61.8095ZM274.44 55.7143H280.536V61.8095H274.44V55.7143ZM274.44 49.619H280.536V55.7143H274.44V49.619ZM280.536 49.619H286.631V55.7143H280.536V49.619ZM280.536 55.7143H286.631V61.8095H280.536V55.7143ZM280.536 25.2381H286.631V31.3333H280.536V25.2381ZM280.536 37.4286H286.631V43.5238H280.536V37.4286ZM280.536 43.5238H286.631V49.619H280.536V43.5238ZM274.44 43.5238H280.536V49.619H274.44V43.5238ZM274.44 37.4286H280.536V43.5238H274.44V37.4286ZM286.631 19.1429H292.726V25.2381H286.631V19.1429ZM292.726 19.1429H298.821V25.2381H292.726V19.1429ZM298.821 19.1429H304.917V25.2381H298.821V19.1429ZM292.726 25.2381H298.821V31.3333H292.726V25.2381ZM298.821 25.2381H304.917V31.3333H298.821V25.2381ZM304.917 25.2381H311.012V31.3333H304.917V25.2381ZM298.821 37.4286H304.917V43.5238H298.821V37.4286ZM304.917 37.4286H311.012V43.5238H304.917V37.4286ZM304.917 43.5238H311.012V49.619H304.917V43.5238ZM304.917 49.619H311.012V55.7143H304.917V49.619ZM298.821 49.619H304.917V55.7143H298.821V49.619ZM298.821 43.5238H304.917V49.619H298.821V43.5238ZM298.821 55.7143H304.917V61.8095H298.821V55.7143ZM304.917 55.7143H311.012V61.8095H304.917V55.7143ZM292.726 13.0476H298.821V19.1429H292.726V13.0476ZM286.631 13.0476H292.726V19.1429H286.631V13.0476ZM280.536 13.0476H286.631V19.1429H280.536V13.0476ZM286.631 6.95238H292.726V13.0476H286.631V6.95238ZM280.536 6.95238H286.631V13.0476H280.536V6.95238ZM274.44 0.85714H280.536V6.95238H274.44V0.85714ZM274.44 6.95238H280.536V13.0476H274.44V6.95238ZM274.44 31.3333H280.536V37.4286H274.44V31.3333ZM280.536 31.3333H286.631V37.4286H280.536V31.3333ZM298.821 31.3333H304.917V37.4286H298.821V31.3333ZM304.917 31.3333H311.012V37.4286H304.917V31.3333ZM335.381 25.2381H341.476V31.3333H335.381V25.2381ZM341.476 25.2381H347.571V31.3333H341.476V25.2381ZM329.286 31.3333H335.381V37.4286H329.286V31.3333ZM335.381 31.3333H341.476V37.4286H335.381V31.3333ZM341.476 31.3333H347.571V37.4286H341.476V31.3333ZM347.571 31.3333H353.667V37.4286H347.571V31.3333ZM353.667 25.2381H359.762V31.3333H353.667V25.2381ZM323.19 37.4286H329.286V43.5238H323.19V37.4286ZM323.19 43.5238H329.286V49.619H323.19V43.5238ZM353.667 19.1429H359.762V25.2381H353.667V19.1429ZM353.667 37.4286H359.762V43.5238H353.667V37.4286ZM329.286 37.4286H335.381V43.5238H329.286V37.4286ZM329.286 43.5238H335.381V49.619H329.286V43.5238ZM323.19 49.619H329.286V55.7143H323.19V49.619ZM329.286 49.619H335.381V55.7143H329.286V49.619ZM335.381 49.619H341.476V55.7143H335.381V49.619ZM341.476 43.5238H347.571V49.619H341.476V43.5238ZM347.571 43.5238H353.667V49.619H347.571V43.5238ZM329.286 55.7143H335.381V61.8095H329.286V55.7143ZM323.19 61.8095H329.286V67.9048H323.19V61.8095ZM329.286 61.8095H335.381V67.9048H329.286V61.8095ZM335.381 61.8095H341.476V67.9048H335.381V61.8095ZM341.476 61.8095H347.571V67.9048H341.476V61.8095ZM347.571 61.8095H353.667V67.9048H347.571V61.8095ZM335.381 67.9048H341.476V74H335.381V67.9048ZM341.476 67.9048H347.571V74H341.476V67.9048ZM317.095 67.9048H323.19V74H317.095V67.9048ZM347.571 49.619H353.667V55.7143H347.571V49.619ZM347.571 55.7143H353.667V61.8095H347.571V55.7143ZM353.667 49.619H359.762V55.7143H353.667V49.619ZM353.667 55.7143H359.762V61.8095H353.667V55.7143ZM396.345 0.85714H402.44V6.95238H396.345V0.85714ZM402.44 0.85714H408.536V6.95238H402.44V0.85714ZM408.536 0.85714H414.631V6.95238H408.536V0.85714ZM414.631 0.85714H420.726V6.95238H414.631V0.85714ZM420.726 0.85714H426.821V6.95238H420.726V0.85714ZM426.821 0.85714H432.917V6.95238H426.821V0.85714ZM432.917 0.85714H439.012V6.95238H432.917V0.85714ZM439.012 0.85714H445.107V6.95238H439.012V0.85714ZM408.536 6.95238H414.631V13.0476H408.536V6.95238ZM414.631 6.95238H420.726V13.0476H414.631V6.95238ZM420.726 6.95238H426.821V13.0476H420.726V6.95238ZM426.821 6.95238H432.917V13.0476H426.821V6.95238ZM432.917 6.95238H439.012V13.0476H432.917V6.95238ZM439.012 6.95238H445.107V13.0476H439.012V6.95238ZM408.536 19.1429H414.631V25.2381H408.536V19.1429ZM414.631 19.1429H420.726V25.2381H414.631V19.1429ZM414.631 25.2381H420.726V31.3333H414.631V25.2381ZM408.536 25.2381H414.631V31.3333H408.536V25.2381ZM408.536 37.4286H414.631V43.5238H408.536V37.4286ZM414.631 37.4286H420.726V43.5238H414.631V37.4286ZM414.631 43.5238H420.726V49.619H414.631V43.5238ZM408.536 49.619H414.631V55.7143H408.536V49.619ZM414.631 49.619H420.726V55.7143H414.631V49.619ZM396.345 67.9048H402.44V74H396.345V67.9048ZM396.345 25.2381H402.44V31.3333H396.345V25.2381ZM402.44 25.2381H408.536V31.3333H402.44V25.2381ZM408.536 31.3333H414.631V37.4286H408.536V31.3333ZM414.631 31.3333H420.726V37.4286H414.631V31.3333ZM396.345 37.4286H402.44V43.5238H396.345V37.4286ZM402.44 37.4286H408.536V43.5238H402.44V37.4286ZM408.536 43.5238H414.631V49.619H408.536V43.5238ZM402.44 61.8095H408.536V67.9048H402.44V61.8095ZM408.536 61.8095H414.631V67.9048H408.536V61.8095ZM414.631 61.8095H420.726V67.9048H414.631V61.8095ZM420.726 61.8095H426.821V67.9048H420.726V61.8095ZM426.821 61.8095H432.917V67.9048H426.821V61.8095ZM432.917 61.8095H439.012V67.9048H432.917V61.8095ZM439.012 61.8095H445.107V67.9048H439.012V61.8095ZM414.631 67.9048H420.726V74H414.631V67.9048ZM420.726 67.9048H426.821V74H420.726V67.9048ZM426.821 67.9048H432.917V74H426.821V67.9048ZM432.917 67.9048H439.012V74H432.917V67.9048ZM426.821 49.619H432.917V55.7143H426.821V49.619ZM426.821 43.5238H432.917V49.619H426.821V43.5238ZM426.821 37.4286H432.917V43.5238H426.821V37.4286ZM426.821 31.3333H432.917V37.4286H426.821V31.3333ZM426.821 25.2381H432.917V31.3333H426.821V25.2381ZM426.821 19.1429H432.917V25.2381H426.821V19.1429ZM426.821 13.0476H432.917V19.1429H426.821V13.0476ZM445.107 13.0476H451.202V19.1429H445.107V13.0476ZM445.107 19.1429H451.202V25.2381H445.107V19.1429ZM445.107 25.2381H451.202V31.3333H445.107V25.2381ZM445.107 31.3333H451.202V37.4286H445.107V31.3333ZM445.107 37.4286H451.202V43.5238H445.107V37.4286ZM445.107 43.5238H451.202V49.619H445.107V43.5238ZM451.202 13.0476H457.298V19.1429H451.202V13.0476ZM451.202 19.1429H457.298V25.2381H451.202V19.1429ZM451.202 25.2381H457.298V31.3333H451.202V25.2381ZM451.202 31.3333H457.298V37.4286H451.202V31.3333ZM451.202 37.4286H457.298V43.5238H451.202V37.4286ZM445.107 0.85714H451.202V6.95238H445.107V0.85714ZM445.107 6.95238H451.202V13.0476H445.107V6.95238ZM451.202 6.95238H457.298V13.0476H451.202V6.95238ZM445.107 49.619H451.202V55.7143H445.107V49.619ZM451.202 49.619H457.298V55.7143H451.202V49.619ZM451.202 43.5238H457.298V49.619H451.202V43.5238ZM445.107 55.7143H451.202V61.8095H445.107V55.7143ZM463.345 31.3333H469.44V37.4286H463.345V31.3333ZM469.44 31.3333H475.536V37.4286H469.44V31.3333ZM475.536 31.3333H481.631V37.4286H475.536V31.3333ZM481.631 31.3333H487.726V37.4286H481.631V31.3333ZM469.44 25.2381H475.536V31.3333H469.44V25.2381ZM475.536 25.2381H481.631V31.3333H475.536V25.2381ZM493.821 31.3333H499.917V37.4286H493.821V31.3333ZM499.917 31.3333H506.012V37.4286H499.917V31.3333ZM506.012 31.3333H512.107V37.4286H506.012V31.3333ZM512.107 31.3333H518.202V37.4286H512.107V31.3333ZM499.917 25.2381H506.012V31.3333H499.917V25.2381ZM506.012 25.2381H512.107V31.3333H506.012V25.2381ZM481.631 37.4286H487.726V43.5238H481.631V37.4286ZM475.536 37.4286H481.631V43.5238H475.536V37.4286ZM475.536 43.5238H481.631V49.619H475.536V43.5238ZM475.536 49.619H481.631V55.7143H475.536V49.619ZM481.631 49.619H487.726V55.7143H481.631V49.619ZM481.631 55.7143H487.726V61.8095H481.631V55.7143ZM481.631 43.5238H487.726V49.619H481.631V43.5238ZM475.536 55.7143H481.631V61.8095H475.536V55.7143ZM499.917 37.4286H506.012V43.5238H499.917V37.4286ZM506.012 37.4286H512.107V43.5238H506.012V37.4286ZM506.012 43.5238H512.107V49.619H506.012V43.5238ZM506.012 49.619H512.107V55.7143H506.012V49.619ZM506.012 55.7143H512.107V61.8095H506.012V55.7143ZM499.917 49.619H506.012V55.7143H499.917V49.619ZM499.917 43.5238H506.012V49.619H499.917V43.5238ZM499.917 55.7143H506.012V61.8095H499.917V55.7143ZM469.44 61.8095H475.536V67.9048H469.44V61.8095ZM475.536 61.8095H481.631V67.9048H475.536V61.8095ZM481.631 61.8095H487.726V67.9048H481.631V61.8095ZM487.726 61.8095H493.821V67.9048H487.726V61.8095ZM493.821 61.8095H499.917V67.9048H493.821V61.8095ZM499.917 61.8095H506.012V67.9048H499.917V61.8095ZM506.012 61.8095H512.107V67.9048H506.012V61.8095ZM512.107 61.8095H518.202V67.9048H512.107V61.8095ZM481.631 67.9048H487.726V74H481.631V67.9048ZM487.726 67.9048H493.821V74H487.726V67.9048ZM518.202 61.8095H524.298V67.9048H518.202V61.8095ZM512.107 67.9048H518.202V74H512.107V67.9048ZM506.012 67.9048H512.107V74H506.012V67.9048ZM536.44 61.8095H542.536V67.9048H536.44V61.8095ZM542.536 61.8095H548.631V67.9048H542.536V61.8095ZM548.631 61.8095H554.726V67.9048H548.631V61.8095ZM554.726 61.8095H560.821V67.9048H554.726V61.8095ZM542.536 67.9048H548.631V74H542.536V67.9048ZM548.631 67.9048H554.726V74H548.631V67.9048ZM566.917 61.8095H573.012V67.9048H566.917V61.8095ZM573.012 61.8095H579.107V67.9048H573.012V61.8095ZM579.107 61.8095H585.202V67.9048H579.107V61.8095ZM573.012 67.9048H579.107V74H573.012V67.9048ZM573.012 55.7143H579.107V61.8095H573.012V55.7143ZM566.917 55.7143H573.012V61.8095H566.917V55.7143ZM566.917 49.619H573.012V55.7143H566.917V49.619ZM566.917 43.5238H573.012V49.619H566.917V43.5238ZM573.012 43.5238H579.107V49.619H573.012V43.5238ZM573.012 49.619H579.107V55.7143H573.012V49.619ZM542.536 55.7143H548.631V61.8095H542.536V55.7143ZM548.631 55.7143H554.726V61.8095H548.631V55.7143ZM548.631 49.619H554.726V55.7143H548.631V49.619ZM542.536 49.619H548.631V55.7143H542.536V49.619ZM542.536 43.5238H548.631V49.619H542.536V43.5238ZM548.631 43.5238H554.726V49.619H548.631V43.5238ZM573.012 37.4286H579.107V43.5238H573.012V37.4286ZM566.917 37.4286H573.012V43.5238H566.917V37.4286ZM548.631 37.4286H554.726V43.5238H548.631V37.4286ZM542.536 31.3333H548.631V37.4286H542.536V31.3333ZM542.536 37.4286H548.631V43.5238H542.536V37.4286ZM579.107 31.3333H585.202V37.4286H579.107V31.3333ZM573.012 31.3333H579.107V37.4286H573.012V31.3333ZM566.917 31.3333H573.012V37.4286H566.917V31.3333ZM548.631 31.3333H554.726V37.4286H548.631V31.3333ZM554.726 31.3333H560.821V37.4286H554.726V31.3333ZM560.821 31.3333H566.917V37.4286H560.821V31.3333ZM536.44 31.3333H542.536V37.4286H536.44V31.3333ZM530.345 31.3333H536.44V37.4286H530.345V31.3333ZM536.44 25.2381H542.536V31.3333H536.44V25.2381ZM542.536 25.2381H548.631V31.3333H542.536V25.2381ZM560.821 25.2381H566.917V31.3333H560.821V25.2381ZM566.917 25.2381H573.012V31.3333H566.917V25.2381ZM591.345 61.8095H597.44V67.9048H591.345V61.8095ZM597.44 61.8095H603.536V67.9048H597.44V61.8095ZM603.536 61.8095H609.631V67.9048H603.536V61.8095ZM609.631 61.8095H615.726V67.9048H609.631V61.8095ZM615.726 61.8095H621.821V67.9048H615.726V61.8095ZM621.821 61.8095H627.917V67.9048H621.821V61.8095ZM603.536 67.9048H609.631V74H603.536V67.9048ZM609.631 67.9048H615.726V74H609.631V67.9048ZM597.44 55.7143H603.536V61.8095H597.44V55.7143ZM603.536 55.7143H609.631V61.8095H603.536V55.7143ZM603.536 49.619H609.631V55.7143H603.536V49.619ZM603.536 43.5238H609.631V49.619H603.536V43.5238ZM603.536 37.4286H609.631V43.5238H603.536V37.4286ZM597.44 37.4286H603.536V43.5238H597.44V37.4286ZM597.44 43.5238H603.536V49.619H597.44V43.5238ZM597.44 49.619H603.536V55.7143H597.44V49.619ZM603.536 31.3333H609.631V37.4286H603.536V31.3333ZM609.631 25.2381H615.726V31.3333H609.631V25.2381ZM615.726 25.2381H621.821V31.3333H615.726V25.2381ZM621.821 25.2381H627.917V31.3333H621.821V25.2381ZM615.726 31.3333H621.821V37.4286H615.726V31.3333ZM621.821 31.3333H627.917V37.4286H621.821V31.3333ZM627.917 31.3333H634.012V37.4286H627.917V31.3333ZM634.012 31.3333H640.107V37.4286H634.012V31.3333ZM627.917 37.4286H634.012V43.5238H627.917V37.4286ZM627.917 43.5238H634.012V49.619H627.917V43.5238ZM627.917 49.619H634.012V55.7143H627.917V49.619ZM621.821 43.5238H627.917V49.619H621.821V43.5238ZM621.821 37.4286H627.917V43.5238H621.821V37.4286ZM621.821 49.619H627.917V55.7143H621.821V49.619ZM621.821 55.7143H627.917V61.8095H621.821V55.7143ZM627.917 55.7143H634.012V61.8095H627.917V55.7143ZM627.917 61.8095H634.012V67.9048H627.917V61.8095ZM627.917 67.9048H634.012V74H627.917V67.9048ZM627.917 74H634.012V80.0952H627.917V74ZM627.917 80.0952H634.012V86.1905H627.917V80.0952ZM634.012 67.9048H640.107V74H634.012V67.9048ZM634.012 74H640.107V80.0952H634.012V74ZM609.631 80.0952H615.726V86.1905H609.631V80.0952ZM615.726 80.0952H621.821V86.1905H615.726V80.0952ZM615.726 86.1905H621.821V92.2857H615.726V86.1905ZM603.536 86.1905H609.631V92.2857H603.536V86.1905ZM621.821 86.1905H627.917V92.2857H621.821V86.1905ZM652.315 61.8095H658.411V67.9048H652.315V61.8095ZM646.22 61.8095H652.315V67.9048H646.22V61.8095ZM658.411 61.8095H664.506V67.9048H658.411V61.8095ZM652.315 67.9048H658.411V74H652.315V67.9048ZM658.411 67.9048H664.506V74H658.411V67.9048ZM652.315 49.619H658.411V55.7143H652.315V49.619ZM658.411 49.619H664.506V55.7143H658.411V49.619ZM658.411 43.5238H664.506V49.619H658.411V43.5238ZM658.411 37.4286H664.506V43.5238H658.411V37.4286ZM652.315 37.4286H658.411V43.5238H652.315V37.4286ZM652.315 43.5238H658.411V49.619H652.315V43.5238ZM658.411 31.3333H664.506V37.4286H658.411V31.3333ZM664.506 25.2381H670.601V31.3333H664.506V25.2381ZM676.696 25.2381H682.792V31.3333H676.696V25.2381ZM670.601 25.2381H676.696V31.3333H670.601V25.2381ZM676.696 31.3333H682.792V37.4286H676.696V31.3333ZM664.506 61.8095H670.601V67.9048H664.506V61.8095ZM670.601 31.3333H676.696V37.4286H670.601V31.3333ZM682.792 31.3333H688.887V37.4286H682.792V31.3333ZM682.792 37.4286H688.887V43.5238H682.792V37.4286ZM676.696 37.4286H682.792V43.5238H676.696V37.4286ZM670.601 43.5238H676.696V49.619H670.601V43.5238ZM664.506 43.5238H670.601V49.619H664.506V43.5238ZM652.315 55.7143H658.411V61.8095H652.315V55.7143ZM658.411 55.7143H664.506V61.8095H658.411V55.7143ZM670.601 61.8095H676.696V67.9048H670.601V61.8095ZM694.97 61.8095H701.065V67.9048H694.97V61.8095ZM701.065 61.8095H707.161V67.9048H701.065V61.8095ZM707.161 61.8095H713.256V67.9048H707.161V61.8095ZM713.256 61.8095H719.351V67.9048H713.256V61.8095ZM707.161 67.9048H713.256V74H707.161V67.9048ZM725.446 61.8095H731.542V67.9048H725.446V61.8095ZM731.542 55.7143H737.637V61.8095H731.542V55.7143ZM725.446 55.7143H731.542V61.8095H725.446V55.7143ZM725.446 49.619H731.542V55.7143H725.446V49.619ZM725.446 43.5238H731.542V49.619H725.446V43.5238ZM731.542 43.5238H737.637V49.619H731.542V43.5238ZM731.542 49.619H737.637V55.7143H731.542V49.619ZM701.065 55.7143H707.161V61.8095H701.065V55.7143ZM707.161 55.7143H713.256V61.8095H707.161V55.7143ZM707.161 49.619H713.256V55.7143H707.161V49.619ZM701.065 49.619H707.161V55.7143H701.065V49.619ZM701.065 43.5238H707.161V49.619H701.065V43.5238ZM731.542 37.4286H737.637V43.5238H731.542V37.4286ZM725.446 37.4286H731.542V43.5238H725.446V37.4286ZM707.161 37.4286H713.256V43.5238H707.161V37.4286ZM701.065 37.4286H707.161V43.5238H701.065V37.4286ZM737.637 31.3333H743.732V37.4286H737.637V31.3333ZM731.542 31.3333H737.637V37.4286H731.542V31.3333ZM725.446 31.3333H731.542V37.4286H725.446V31.3333ZM719.351 31.3333H725.446V37.4286H719.351V31.3333ZM713.256 25.2381H719.351V31.3333H713.256V25.2381ZM719.351 25.2381H725.446V31.3333H719.351V25.2381ZM725.446 25.2381H731.542V31.3333H725.446V25.2381ZM707.161 43.5238H713.256V49.619H707.161V43.5238ZM707.161 31.3333H713.256V37.4286H707.161V31.3333ZM713.256 67.9048H719.351V74H713.256V67.9048ZM719.351 61.8095H725.446V67.9048H719.351V61.8095ZM755.94 61.8095H762.036V67.9048H755.94V61.8095ZM762.036 61.8095H768.131V67.9048H762.036V61.8095ZM768.131 61.8095H774.226V67.9048H768.131V61.8095ZM774.226 61.8095H780.321V67.9048H774.226V61.8095ZM762.036 67.9048H768.131V74H762.036V67.9048ZM768.131 67.9048H774.226V74H768.131V67.9048ZM786.417 61.8095H792.512V67.9048H786.417V61.8095ZM792.512 61.8095H798.607V67.9048H792.512V61.8095ZM798.607 61.8095H804.702V67.9048H798.607V61.8095ZM792.512 67.9048H798.607V74H792.512V67.9048ZM792.512 55.7143H798.607V61.8095H792.512V55.7143ZM786.417 55.7143H792.512V61.8095H786.417V55.7143ZM786.417 49.619H792.512V55.7143H786.417V49.619ZM786.417 43.5238H792.512V49.619H786.417V43.5238ZM792.512 43.5238H798.607V49.619H792.512V43.5238ZM792.512 49.619H798.607V55.7143H792.512V49.619ZM762.036 55.7143H768.131V61.8095H762.036V55.7143ZM768.131 55.7143H774.226V61.8095H768.131V55.7143ZM768.131 49.619H774.226V55.7143H768.131V49.619ZM762.036 49.619H768.131V55.7143H762.036V49.619ZM762.036 43.5238H768.131V49.619H762.036V43.5238ZM768.131 43.5238H774.226V49.619H768.131V43.5238ZM792.512 37.4286H798.607V43.5238H792.512V37.4286ZM786.417 37.4286H792.512V43.5238H786.417V37.4286ZM768.131 37.4286H774.226V43.5238H768.131V37.4286ZM762.036 31.3333H768.131V37.4286H762.036V31.3333ZM762.036 37.4286H768.131V43.5238H762.036V37.4286ZM798.607 31.3333H804.702V37.4286H798.607V31.3333ZM792.512 31.3333H798.607V37.4286H792.512V31.3333ZM786.417 31.3333H792.512V37.4286H786.417V31.3333ZM768.131 31.3333H774.226V37.4286H768.131V31.3333ZM774.226 31.3333H780.321V37.4286H774.226V31.3333ZM780.321 31.3333H786.417V37.4286H780.321V31.3333ZM755.94 31.3333H762.036V37.4286H755.94V31.3333ZM749.845 31.3333H755.94V37.4286H749.845V31.3333ZM755.94 25.2381H762.036V31.3333H755.94V25.2381ZM762.036 25.2381H768.131V31.3333H762.036V25.2381ZM780.321 25.2381H786.417V31.3333H780.321V25.2381ZM786.417 25.2381H792.512V31.3333H786.417V25.2381Z" fill="white"/>
</svg>
